{"title":"MommyGotBoobs.Neigh.Darby.XXX.18.AUG.2014-ViK","uid":10803451,"size":406391382,"categoryP":"porn","categoryS":"movies","magnet":"?xt=urn:btih:79a181b29fce49cb60ed864d42027bc42d28d006&amp;dn=MommyGotBoobs.Neigh.Darby.XXX.18.AUG.2014-ViK&amp;tr=udp%3A%2F%2Ftracker.openbittorrent.com%3A80&amp;tr=udp%3A%2F%2Fopen.demonii.com%3A1337&amp;tr=udp%3A%2F%2Ftracker.coppersurfer.tk%3A6969&amp;tr=udp%3A%2F%2Fexodus.desync.com%3A6969","seeders":0,"leechers":0,"uploader":"iH2OSO4","files":-1,"time":1408367868,"description":"Ryan and Danny are off to a music festival for the weekend, and Ryan's mom Leigh Darby is helping them prepare. When she catches Danny rifling through her underwear drawer, Danny is sure he's toast. But much to his surprise, she doesn't get mad, she just starts jerking his cock! Leigh waits until later that night when Ryan is catching some Z's and then she sneaks into their room so Danny can worship her big tits. She sucks his big cock, gives him a blowjob, and titty fucks his monster wang. Danny pounds Leigh's tight MILF pussy and then gives her a huge facial cumshot all while his best friend is just a feet away!\n\nGeneral\nMommyGotBoobs.Neigh.Darby.XXX.18.AUG.2014-ViK.mp4\n\nSOURCE: &lt;a href=&quot; http://nuscotower.com/i/r6t36fgnd.html&quot; rel=&quot;nofollow&quot; target=&quot;_NEW&quot;&gt; http://nuscotower.com/i/r6t36fgnd.html&lt;/a&gt;\n\nFormat                           : MPEG-4\nFormat profile                   : Base Media\nCodec ID                         : isom\nFile size                        : 387 MiB\nDuration                         : 25mn 28s\nOverall bit rate                 : 2 125 Kbps\nEncoded date                     : UTC 2014-08-18 11:03:13\nTagged date                      : UTC 2014-08-18 11:03:13\n\nVideo\nID                               : 1\nFormat                           : MPEG-4 Visual\nFormat profile                   : Simple@L1\nFormat settings, BVOP            : No\nFormat settings, QPel            : No\nFormat settings, GMC             : No warppoints\nFormat settings, Matrix          : Default (H.263)\nCodec ID                         : 20\nDuration                         : 25mn 28s\nBit rate mode                    : Variable\nBit rate                         : 1 998 Kbps\nMaximum bit rate                 : 7 150 Kbps\nWidth                            : 856 pixels\nHeight                           : 480 pixels\nDisplay aspect ratio             : 16:9\nFrame rate mode                  : Constant\nFrame rate                       : 29.970 fps\nColor space                      : YUV\nChroma subsampling               : 4:2:0\nBit depth                        : 8 bits\nScan type                        : Progressive\nCompression mode                 : Lossy\nBits/(Pixel*Frame)               : 0.162\nStream size                      : 364 MiB (94%)\nWriting library                  : Lavc53.8.0\nEncoded date                     : UTC 2014-08-18 11:03:13\nTagged date                      : UTC 2014-08-18 11:03:46\n\nAudio\nID                               : 2\nFormat                           : AAC\nFormat/Info                      : Advanced Audio Codec\nFormat profile                   : LC\nCodec ID                         : 40\nDuration                         : 25mn 28s\nBit rate mode                    : Variable\nBit rate                         : 126 Kbps\nMaximum bit rate                 : 204 Kbps\nChannel(s)                       : 2 channels\nChannel positions                : Front: L R\nSampling rate                    : 44.1 KHz\nCompression mode                 : Lossy\nStream size                      : 22.9 MiB (6%)\nEncoded date                     : UTC 2014-08-18 11:03:39\nTagged date                      : UTC 2014-08-18 11:03:46\n","torrent":{"xt":"urn:btih:79a181b29fce49cb60ed864d42027bc42d28d006","amp;dn":"MommyGotBoobs.Neigh.Darby.XXX.18.AUG.2014-ViK","amp;tr":["udp%3A%2F%2Ftracker.openbittorrent.com%3A80","udp%3A%2F%2Fopen.demonii.com%3A1337","udp%3A%2F%2Ftracker.coppersurfer.tk%3A6969","udp%3A%2F%2Fexodus.desync.com%3A6969"],"infoHash":"79a181b29fce49cb60ed864d42027bc42d28d006","infoHashBuffer":{"type":"Buffer","data":[121,161,129,178,159,206,73,203,96,237,134,77,66,2,123,196,45,40,208,6]},"announce":[],"urlList":[]}}